<?xml version="1.0" encoding="UTF-8" standalone="no"?>
<svg
   xmlns:dc="http://purl.org/dc/elements/1.1/"
   xmlns:cc="http://creativecommons.org/ns#"
   xmlns:rdf="http://www.w3.org/1999/02/22-rdf-syntax-ns#"
   xmlns:svg="http://www.w3.org/2000/svg"
   xmlns="http://www.w3.org/2000/svg"
   xmlns:sodipodi="http://sodipodi.sourceforge.net/DTD/sodipodi-0.dtd"
   xmlns:inkscape="http://www.inkscape.org/namespaces/inkscape"
   height="97mm"
   viewBox="0 0 680.30244 366.62179"
   width="180mm"
   version="1.1"
   id="svg40"
   sodipodi:docname="project.svg"
   inkscape:version="0.92.2 5c3e80d, 2017-08-06">
  <metadata
     id="metadata46">
    <rdf:RDF>
      <cc:Work
         rdf:about="">
        <dc:format>image/svg+xml</dc:format>
        <dc:type
           rdf:resource="http://purl.org/dc/dcmitype/StillImage" />
        <dc:title></dc:title>
      </cc:Work>
    </rdf:RDF>
  </metadata>
  <defs
     id="defs44" />
  <sodipodi:namedview
     pagecolor="#ffffff"
     bordercolor="#666666"
     borderopacity="1"
     objecttolerance="10"
     gridtolerance="10"
     guidetolerance="10"
     inkscape:pageopacity="0"
     inkscape:pageshadow="2"
     inkscape:window-width="1920"
     inkscape:window-height="1034"
     id="namedview42"
     showgrid="false"
     units="mm"
     inkscape:zoom="1.6374106"
     inkscape:cx="305.30468"
     inkscape:cy="160.57802"
     inkscape:window-x="-4"
     inkscape:window-y="-4"
     inkscape:window-maximized="1"
     inkscape:current-layer="svg40" />
  <g
     id="g8554"
     transform="matrix(0.86440862,0,0,0.86440862,3.0536655,-609.21042)">
    <path
       style="fill:#d70751"
       inkscape:connector-curvature="0"
       id="path2"
       d="m 60.969,1026.055 c -1.494,0.02 0.281,0.768 2.232,1.069 0.541,-0.422 1.027,-0.846 1.463,-1.26 -1.213,0.297 -2.449,0.304 -3.695,0.191" />
    <path
       style="fill:#d70751"
       inkscape:connector-curvature="0"
       id="path4"
       d="m 68.986,1024.056 c 0.893,-1.229 1.541,-2.573 1.77,-3.963 -0.201,0.99 -0.736,1.845 -1.244,2.749 -2.793,1.759 -0.264,-1.044 -0.002,-2.111 -3.002,3.783 -0.414,2.268 -0.524,3.325" />
    <path
       style="fill:#d70751"
       inkscape:connector-curvature="0"
       id="path6"
       d="m 71.949,1016.352 c 0.182,-2.691 -0.529,-1.839 -0.768,-0.814 0.278,0.146 0.499,1.898 0.768,0.814" />
    <path
       style="fill:#d70751"
       inkscape:connector-curvature="0"
       id="path8"
       d="m 55.301,979.57301 c 0.798,0.142 1.724,0.252 1.591,0.443 0.876,-0.193 1.073,-0.367 -1.591,-0.443" />
    <path
       style="fill:#d70751"
       inkscape:connector-curvature="0"
       id="path10"
       d="m 56.893,980.01601 -0.561,0.117 0.523,-0.048 0.038,-0.069" />
    <path
       style="fill:#d70751"
       inkscape:connector-curvature="0"
       id="path12"
       d="m 81.762,1017.372 c 0.09,2.416 -0.705,3.59 -1.424,5.666 l -1.293,0.643 c -1.057,2.054 0.105,1.304 -0.652,2.937 -1.652,1.467 -5.006,4.589 -6.08,4.875 -0.785,-0.017 0.531,-0.926 0.703,-1.281 -2.209,1.516 -1.773,2.276 -5.152,3.199 l -0.098,-0.221 c -8.33,3.92 -19.902,-3.847 -19.75,-14.443 -0.088,0.672 -0.253,0.504 -0.437,0.774 -0.43,-5.451 2.518,-10.926 7.49,-13.165 4.863,-2.406 10.564,-1.42 14.045,1.829 -1.912,-2.506 -5.721,-5.163 -10.232,-4.917 -4.421,0.072 -8.558,2.881 -9.938,5.932 -2.264,1.425 -2.528,5.496 -3.514,6.242 -1.329,9.76 2.497,13.975 8.97,18.936 1.016,0.686 0.286,0.791 0.422,1.313 -2.15,-1.006 -4.118,-2.526 -5.738,-4.387 0.86,1.257 1.787,2.479 2.986,3.439 -2.029,-0.685 -4.738,-4.913 -5.527,-5.085 3.495,6.258 14.178,10.975 19.775,8.634 -2.59,0.096 -5.879,0.053 -8.787,-1.022 -1.225,-0.629 -2.884,-1.93 -2.587,-2.173 7.636,2.851 15.522,2.158 22.128,-3.137 1.682,-1.31 3.518,-3.537 4.049,-3.567 -0.799,1.202 0.137,0.578 -0.477,1.639 1.672,-2.701 -0.729,-1.1 1.73,-4.664 l 0.908,1.25 c -0.34,-2.244 2.785,-4.966 2.467,-8.512 0.717,-1.084 0.799,1.168 0.039,3.662 1.055,-2.767 0.279,-3.212 0.549,-5.496 0.291,0.768 0.678,1.583 0.875,2.394 -0.688,-2.675 0.703,-4.503 1.049,-6.058 -0.342,-0.15 -1.061,1.182 -1.227,-1.976 0.025,-1.372 0.383,-0.719 0.52,-1.057 -0.268,-0.155 -0.975,-1.207 -1.404,-3.224 0.309,-0.475 0.832,1.229 1.256,1.298 -0.273,-1.603 -0.742,-2.826 -0.762,-4.057 -1.24,-2.59 -0.439,0.346 -1.443,-1.112 -1.32,-4.11399 1.094,-0.955 1.258,-2.82299 1.998,2.89499 3.137,7.38499 3.662,9.24399 -0.4,-2.267 -1.045,-4.464 -1.834,-6.589 0.609,0.257 -0.979,-4.66299 0.791,-1.405 -1.889,-6.94499 -8.078,-13.43499 -13.773,-16.47899 0.695,0.637 1.574,1.437 1.26,1.563 -2.834,-1.685 -2.336,-1.818 -2.742,-2.53 -2.305,-0.939 -2.459,0.077 -3.984,0.002 -4.35,-2.308 -5.188,-2.063 -9.191,-3.507 l 0.182,0.852 c -2.881,-0.96 -3.357,0.362 -6.47,0.002 -0.189,-0.147 0.998,-0.536 1.976,-0.677 -2.786,0.368 -2.656,-0.55 -5.382,0.101 0.671,-0.471 1.383,-0.784 2.099,-1.184 -2.271,0.138 -5.424,1.322 -4.451,0.244 -3.705,1.654 -10.286,3.975 -13.979,7.438 l -0.116,-0.776 c -1.692,2.031 -7.379,6.066 -7.832,8.699 l -0.453,0.105 c -0.879,1.491 -1.45,3.18 -2.148,4.713 -1.151,1.96299 -1.688,0.75599 -1.524,1.06399 -2.265,4.592 -3.392,8.45 -4.363,11.616 0.692,1.035 0.017,6.232 0.278,10.391 -1.136,20.544 14.418,40.489 31.42,45.093 2.492,0.893 6.197,0.861 9.349,0.949 -3.718,-1.064 -4.198,-0.563 -7.822,-1.826 -2.613,-1.232 -3.185,-2.637 -5.037,-4.244 l 0.733,1.295 c -3.63,-1.285 -2.111,-1.59 -5.065,-2.525 l 0.783,-1.021 c -1.177,-0.09 -3.117,-1.982 -3.647,-3.033 l -1.288,0.051 c -1.546,-1.906 -2.371,-3.283 -2.31,-4.35 l -0.416,0.742 c -0.471,-0.809 -5.691,-7.158 -2.983,-5.68 -0.503,-0.458 -1.172,-0.747 -1.897,-2.066 l 0.551,-0.629 c -1.301,-1.677 -2.398,-3.826 -2.314,-4.542 0.695,0.938 1.177,1.114 1.655,1.275 -3.291,-8.164 -3.476,-0.449 -5.967,-8.31 l 0.526,-0.042 c -0.403,-0.611 -0.65,-1.27 -0.974,-1.919 l 0.23,-2.285 c -2.368,-2.736 -0.662,-11.645 -0.319,-16.53 0.235,-1.986 1.977,-4.101 3.3,-7.418 l -0.806,-0.138 c 1.542,-2.688 8.802,-10.79899 12.166,-10.38299 1.629,-2.046 -0.324,-0.008 -0.643,-0.522 3.579,-3.703 4.704,-2.616 7.119,-3.283 2.603,-1.545 -2.235,0.604 -1.001,-0.589 4.503,-1.149 3.19,-2.614 9.063,-3.197 0.62,0.352 -1.437,0.544 -1.953,1.001 3.75,-1.836 11.869,-1.417 17.145,1.018 6.117,2.861 12.994,11.31399 13.266,19.26699 l 0.309,0.083 c -0.156,3.162 0.484,6.819 -0.627,10.177 l 0.751,-1.591" />
    <path
       style="fill:#d70751"
       inkscape:connector-curvature="0"
       id="path14"
       d="m 44.658,1028.105 -0.211,1.047 c 0.983,1.335 1.763,2.781 3.016,3.821 -0.902,-1.759 -1.571,-2.486 -2.805,-4.868" />
    <path
       style="fill:#d70751"
       inkscape:connector-curvature="0"
       id="path16"
       d="m 46.979,1028.015 c -0.52,-0.576 -0.826,-1.268 -1.172,-1.956 0.33,1.211 1.006,2.252 1.633,3.312 l -0.461,-1.356" />
    <path
       style="fill:#d70751"
       inkscape:connector-curvature="0"
       id="path18"
       d="m 88.063,1019.085 -0.219,0.552 c -0.402,2.858 -1.273,5.686 -2.605,8.309 1.472,-2.767 2.421,-5.794 2.824,-8.861" />
    <path
       style="fill:#d70751"
       inkscape:connector-curvature="0"
       id="path20"
       d="m 55.598,978.85601 c 1.009,-0.369 2.482,-0.203 3.556,-0.446 -1.398,0.117 -2.789,0.187 -4.162,0.362 l 0.606,0.084" />
    <path
       style="fill:#d70751"
       inkscape:connector-curvature="0"
       id="path22"
       d="m 20.127,997.71801 c 0.233,2.154 -1.62,2.99099 0.41,1.569 1.09,-2.454 -0.424,-0.677 -0.41,-1.569" />
    <path
       style="fill:#d70751"
       inkscape:connector-curvature="0"
       id="path24"
       d="m 17.739,1007.692 c 0.469,-1.437 0.553,-2.299 0.732,-3.132 -1.293,1.654 -0.596,2.007 -0.732,3.132" />
    <path
       inkscape:connector-curvature="0"
       id="path26"
       d="m 13.437,1103.92 c -0.045,0.047 -0.045,7.506 -0.138,9.453 -0.092,1.574 -0.232,4.957 -3.568,4.957 -3.429,0 -4.263,-3.939 -4.541,-5.652 -0.324,-1.9 -0.324,-3.477 -0.324,-4.17 0,-2.225 0.139,-8.436 5.375,-8.436 1.576,0 2.456,0.465 3.151,0.834 l 0.045,3.02 z M 0,1109.39 c 0,13.066 6.951,13.066 7.97,13.066 2.873,0 4.727,-1.576 5.514,-4.309 l 0.093,4.123 c 0.881,-0.047 1.761,-0.139 3.197,-0.139 0.51,0 0.926,0 1.298,0.047 0.371,0 0.741,0.045 1.158,0.092 -0.741,-1.482 -1.297,-4.818 -1.297,-12.049 0,-7.043 0,-18.951 0.602,-22.566 -1.667,0.789 -3.105,1.299 -6.256,1.576 1.251,1.344 1.251,2.039 1.251,8.154 -0.879,-0.277 -1.992,-0.602 -3.892,-0.602 -8.294,0 -9.638,7.23 -9.638,12.61" />
    <path
       inkscape:connector-curvature="0"
       id="path28"
       d="m 25.13,1107.02 c 0.047,-3.846 0.835,-7.275 4.124,-7.275 3.615,0 3.891,3.984 3.799,7.275 z m 12.51,0.46 c 0,-5.422 -1.065,-10.752 -7.923,-10.752 -9.452,0 -9.452,10.475 -9.452,12.697 0,9.406 4.216,13.113 11.306,13.113 3.149,0 4.68,-0.461 5.514,-0.695 -0.046,-1.668 0.185,-2.734 0.465,-4.17 -0.975,0.604 -2.226,1.391 -5.006,1.391 -7.229,0 -7.322,-6.582 -7.322,-8.852 H 37.55 l 0.09,-2.74" />
    <path
       inkscape:connector-curvature="0"
       id="path30"
       d="m 52.715,1109.48 c 0,4.309 -0.787,10.102 -6.162,10.102 -0.742,0 -1.668,-0.141 -2.27,-0.279 -0.093,-1.668 -0.093,-4.541 -0.093,-7.877 0,-3.986 0.416,-6.068 0.742,-7.09 0.972,-3.289 3.15,-3.334 3.566,-3.334 3.522,0 4.217,4.86 4.217,8.48 z m -13.298,5.05 c 0,3.43 0,5.375 -0.556,6.857 1.9,0.742 4.262,1.158 7.09,1.158 1.807,0 7.043,0 9.869,-5.791 1.344,-2.688 1.807,-6.303 1.807,-9.037 0,-1.668 -0.186,-5.328 -1.529,-7.646 -1.296,-2.176 -3.382,-3.289 -5.605,-3.289 -4.449,0 -5.746,3.707 -6.44,5.607 0,-2.363 0.045,-10.611 0.415,-14.828 -3.011,1.391 -4.866,1.621 -6.857,1.807 1.807,0.74 1.807,3.801 1.807,13.764 v 11.397" />
    <path
       inkscape:connector-curvature="0"
       id="path32"
       d="m 66.535,1122.27 c -0.928,-0.139 -1.578,-0.232 -2.922,-0.232 -1.48,0 -2.502,0.094 -3.566,0.232 0.463,-0.881 0.648,-1.299 0.787,-4.309 0.186,-4.125 0.232,-15.154 -0.092,-17.471 -0.232,-1.762 -0.648,-2.039 -1.297,-2.502 3.799,-0.371 4.865,-0.648 6.625,-1.482 -0.369,2.037 -0.418,3.059 -0.418,6.162 -0.091,15.98 -0.138,17.7 0.883,19.6" />
    <path
       inkscape:connector-curvature="0"
       id="path34"
       d="m 81.373,1109.15 c -0.092,2.92 -0.139,4.959 -0.928,6.58 -0.973,2.086 -2.594,2.688 -3.799,2.688 -2.783,0 -3.383,-2.316 -3.383,-4.586 0,-4.355 3.893,-4.682 5.652,-4.682 z m -12.744,5.7 c 0,2.92 0.881,5.838 3.477,7.09 1.158,0.51 2.316,0.51 2.688,0.51 4.264,0 5.699,-3.152 6.58,-5.098 -0.047,2.039 0,3.289 0.139,4.912 0.834,-0.047 1.668,-0.139 3.059,-0.139 0.787,0 1.529,0.092 2.316,0.139 -0.51,-0.787 -0.787,-1.252 -0.928,-3.059 -0.092,-1.76 -0.092,-3.521 -0.092,-5.977 l 0.047,-9.453 c 0,-3.523 -0.928,-6.998 -7.879,-6.998 -4.586,0 -7.273,1.391 -8.617,2.086 0.557,1.02 1.02,1.898 1.436,3.893 1.809,-1.576 4.172,-2.41 6.58,-2.41 3.848,0 3.848,2.549 3.848,6.162 -0.881,-0.045 -1.623,-0.137 -2.875,-0.137 -5.887,0.01 -9.779,2.28 -9.779,8.49" />
    <path
       inkscape:connector-curvature="0"
       id="path36"
       d="m 108.06,1117.68 c 0.047,1.576 0.047,3.244 0.695,4.588 -1.021,-0.092 -1.623,-0.232 -3.521,-0.232 -1.113,0 -1.715,0.094 -2.596,0.232 0.184,-0.602 0.279,-0.834 0.371,-1.623 0.139,-1.064 0.232,-4.633 0.232,-5.885 v -5.004 c 0,-2.178 0,-5.33 -0.141,-6.441 -0.092,-0.787 -0.322,-2.918 -3.012,-2.918 -2.641,0 -3.521,1.945 -3.846,3.521 -0.369,1.621 -0.369,3.383 -0.369,10.24 0.045,5.932 0.045,6.486 0.508,8.109 -0.787,-0.092 -1.76,-0.184 -3.15,-0.184 -1.113,0 -1.854,0.045 -2.779,0.184 0.324,-0.742 0.51,-1.113 0.602,-3.707 0.094,-2.549 0.279,-15.061 -0.141,-18.025 -0.23,-1.809 -0.695,-2.225 -1.203,-2.688 3.754,-0.186 4.957,-0.789 6.117,-1.389 v 4.91 c 0.555,-1.438 1.713,-4.635 6.348,-4.635 5.793,0 5.838,4.217 5.885,6.996 v 13.928" />
    <path
       style="fill:#d70751"
       inkscape:connector-curvature="0"
       id="path38"
       d="m 66.926,1089.94 -3.838,3.836 -3.836,-3.836 3.836,-3.836 3.838,3.84" />
  </g>
  <g
     id="g8562"
     transform="matrix(0.74043094,0,0,0.73745269,116.61617,89.666649)">
    <path
       id="path48"
       d="m 309.73915,305.43557 c 0,12.7703 -9.9902,22.1805 -22.25046,22.1805 -12.26025,0 -22.25046,-9.4102 -22.25046,-22.1805 0,-12.8602 9.99021,-22.1804 22.25046,-22.1804 12.26026,0 22.25046,9.3202 22.25046,22.1804 z m -9.7402,0 c 0,-7.9801 -5.79012,-13.4402 -12.51026,-13.4402 -6.72014,0 -12.51026,5.4601 -12.51026,13.4402 0,7.9002 5.79012,13.4403 12.51026,13.4403 6.72014,0 12.51026,-5.5501 12.51026,-13.4403 z"
       style="fill:#ea4335;stroke-width:1.00002074"
       inkscape:connector-curvature="0" />
    <path
       id="path50"
       d="m 357.74015,305.43557 c 0,12.7703 -9.99021,22.1805 -22.25046,22.1805 -12.26026,0 -22.25046,-9.4102 -22.25046,-22.1805 0,-12.8502 9.9902,-22.1804 22.25046,-22.1804 12.26025,0 22.25046,9.3202 22.25046,22.1804 z m -9.7402,0 c 0,-7.9801 -5.79012,-13.4402 -12.51026,-13.4402 -6.72014,0 -12.51026,5.4601 -12.51026,13.4402 0,7.9002 5.79012,13.4403 12.51026,13.4403 6.72014,0 12.51026,-5.5501 12.51026,-13.4403 z"
       style="fill:#fbbc05;stroke-width:1.00002074"
       inkscape:connector-curvature="0" />
    <path
       id="path52"
       d="m 403.74111,284.59517 v 39.8208 c 0,16.3804 -9.6602,23.0705 -21.08044,23.0705 -10.75022,0 -17.22036,-7.1901 -19.66041,-13.0703 l 8.48018,-3.53 c 1.51003,3.61 5.21011,7.8701 11.17023,7.8701 7.31015,0 11.84025,-4.5101 11.84025,-13.0002 v -3.1901 h -0.34001 c -2.18005,2.6901 -6.38013,5.0401 -11.68024,5.0401 -11.09023,0 -21.25045,-9.6602 -21.25045,-22.0905 0,-12.5202 10.16022,-22.2604 21.25045,-22.2604 5.29011,0 9.49019,2.35 11.68024,4.9601 h 0.34001 v -3.6101 h 9.25019 z m -8.56018,20.9204 c 0,-7.8101 -5.21011,-13.5202 -11.84025,-13.5202 -6.72014,0 -12.35025,5.7101 -12.35025,13.5202 0,7.7302 5.63011,13.3603 12.35025,13.3603 6.63014,0 11.84025,-5.6301 11.84025,-13.3603 z"
       style="fill:#4285f4;stroke-width:1.00002074"
       inkscape:connector-curvature="0" />
    <path
       id="path54"
       d="m 418.99143,261.25467 v 65.0014 h -9.5002 v -65.0014 z"
       style="fill:#34a853;stroke-width:1.00002074"
       inkscape:connector-curvature="0" />
    <path
       id="path56"
       d="m 456.0122,312.73577 7.56015,5.0401 c -2.44005,3.6101 -8.32017,9.8302 -18.48038,9.8302 -12.60026,0 -22.01046,-9.7402 -22.01046,-22.1805 0,-13.1902 9.4902,-22.1804 20.92044,-22.1804 11.51024,0 17.14035,9.1602 18.98039,14.1103 l 1.01002,2.52 -29.65062,12.2803 c 2.27005,4.4501 5.80013,6.7201 10.75023,6.7201 4.9601,0 8.40017,-2.44 10.92023,-6.1401 z m -23.27049,-7.9802 19.82041,-8.2301 c -1.09002,-2.7701 -4.37009,-4.7001 -8.23017,-4.7001 -4.9501,0 -11.84024,4.3701 -11.59024,12.9302 z"
       style="fill:#ea4335;stroke-width:1.00002074"
       inkscape:connector-curvature="0" />
    <path
       id="path58"
       d="m 229.27748,299.66547 v -9.4102 h 31.71066 c 0.31001,1.6401 0.47001,3.5801 0.47001,5.6801 0,7.0602 -1.93004,15.7904 -8.15017,22.0105 -6.05012,6.3001 -13.78029,9.6602 -24.0205,9.6602 -18.98039,0 -34.94073,-15.4603 -34.94073,-34.4407 0,-18.9804 15.96034,-34.4407 34.94073,-34.4407 10.50022,0 17.98038,4.1201 23.60049,9.4902 l -6.64014,6.6401 c -4.03008,-3.7801 -9.49019,-6.7201 -16.97035,-6.7201 -13.86029,0 -24.70051,11.1702 -24.70051,25.0305 0,13.8603 10.84022,25.0305 24.70051,25.0305 8.99019,0 14.11029,-3.6101 17.39036,-6.8901 2.66006,-2.6601 4.41009,-6.4602 5.10011,-11.6503 z"
       style="fill:#4285f4;stroke-width:1.00002074"
       inkscape:connector-curvature="0" />
  </g>
  <g
     id="g11533"
     transform="matrix(2.7985374,0,0,2.7872808,515.83317,-81.731644)">
    <path
       inkscape:connector-curvature="0"
       style="fill:#232527;fill-opacity:1;fill-rule:nonzero;stroke:none;stroke-width:0.61020035"
       d="m 32.008108,152.13338 v 3.38561 c 0,0.96167 -0.477188,1.47481 -1.344286,1.47481 -0.871973,0 -1.352022,-0.52794 -1.352022,-1.51585 v -3.34086 h -1.199629 v 3.3819 c 0,1.66402 0.924299,2.61759 2.53584,2.61759 1.626794,0 2.559726,-0.97184 2.559726,-2.66637 v -3.33683 z m 4.413667,0 -2.60548,5.91102 h 1.22453 l 0.50293,-1.14479 0.036,-0.0858 h 2.70674 l 0.53085,1.23058 h 1.25783 l -2.58126,-5.87603 -0.0232,-0.035 z m 7.13285,0 -1.3426,4.06717 -1.30694,-4.06414 h -1.27667 l 2.06083,5.91169 h 0.99341 l 1.3453,-3.88349 1.34428,3.88349 h 1.00183 l 2.05578,-5.91169 h -1.24403 l -1.30964,4.06414 -1.34294,-4.06717 z m 11.73962,0 v 5.90598 h 1.18382 v -5.90598 z m -33.954971,3.5e-4 v 5.91405 h 1.199967 v -2.40195 h 2.709428 v 2.40195 h 1.200302 v -5.91405 h -1.200302 v 2.3858 h -2.709428 v -2.3858 z m 28.058081,0.004 v 5.90598 h 4.46615 v -1.07684 h -3.28233 v -1.46439 h 2.18261 v -1.07717 h -2.18261 v -1.21073 h 3.16795 v -1.07685 z m -12.46727,1.49231 0.85549,1.98009 h -0.003 l 0.0582,0.13659 h -1.81492 l 0.0575,-0.13659 h -10e-4 z"
       id="path4250" />
    <path
       inkscape:connector-curvature="0"
       id="path4252"
       d="m 36.28191,121.90942 c -0.475959,0.0421 -1.762165,0.33486 -1.762165,0.33486 h -5.29e-4 c -2.899064,0.74933 -3.584279,3.38016 -3.584279,3.38016 -0.141571,0.44239 -0.20588,0.89577 -0.224793,1.32291 v 0.58136 c 0.03847,0.89821 0.238229,1.5689 0.238229,1.5689 0.968385,4.29398 5.729766,11.3496 6.753076,12.83177 0.0726,0.072 0.130742,0.046 0.130742,0.046 0.11045,-0.0305 0.101803,-0.13643 0.101803,-0.13643 l 0.0021,5.3e-4 C 39.512243,126.08533 36.28193,121.90943 36.28193,121.90943 Z m 5.207952,0 c 0,0 -3.244443,4.17811 -1.667081,19.94142 h 0.0021 c 0.0122,0.10007 0.0832,0.12092 0.0832,0.12092 0.10556,0.0409 0.159681,-0.0605 0.159681,-0.0605 l 5.29e-4,0.001 c 1.049552,-1.52001 5.7838,-8.53723 6.747909,-12.81473 0,0 0.522727,-2.07032 0.0181,-3.47317 0,0 -0.716688,-2.67157 -3.619418,-3.37757 0,0 -0.836509,-0.21236 -1.724959,-0.33745 z m -14.964979,4.72942 c 0,0 -2.762271,2.62176 -2.899563,5.40123 h 0.0011 v 0.42116 c 0.0021,0.0317 0.0037,0.0638 0.0057,0.0961 0.118988,2.24127 1.805056,3.56774 1.805056,3.56774 2.716617,2.64766 9.294564,5.99046 10.823112,6.74894 0.02141,0.008 0.100383,0.0338 0.146762,-0.0248 0,0 0.02413,-0.0183 0.03514,-0.0512 v -0.0698 c -0.0011,-0.004 -0.0032,-0.008 -0.0052,-0.0124 h 5.29e-4 c -4.185971,-9.14448 -9.912575,-16.07706 -9.912575,-16.07706 z m 24.715287,0 c 0,0 -5.709329,6.91081 -9.893453,16.03675 l 0.0016,-5.3e-4 c 0,0 -0.04941,0.10581 0.03049,0.17415 0,0 0.02384,0.018 0.05684,0.0253 h 0.05788 c 0.0104,-0.003 0.02156,-0.007 0.03256,-0.0145 v 0.001 c 1.570048,-0.77923 8.097091,-4.10006 10.800889,-6.73551 0,0 1.712259,-1.37501 1.801958,-3.58272 0.19771,-3.06627 -2.888713,-5.90404 -2.888713,-5.90404 z m 5.138706,9.07852 c 0,0 -9.307946,4.9951 -14.120585,8.24136 l 5.29e-4,5.3e-4 0.0011,0.001 c 0,0 -0.08734,0.0572 -0.05685,0.15969 0,0 0.04567,0.0827 0.112138,0.0827 v 5.3e-4 c 1.723819,0.003 8.246798,0.0103 8.41034,-0.0202 0,0 0.843452,-0.0337 1.885672,-0.43409 0,0 2.320216,-0.73765 3.525367,-3.37188 0,0 0.550682,-1.10148 0.558622,-2.64894 v -0.0656 c -0.004,-0.59677 -0.08807,-1.25741 -0.316259,-1.9451 z m -34.995281,0.0233 c -0.846883,2.62174 0.293233,4.73428 0.295074,4.73769 1.188143,2.51046 3.45612,3.27112 3.45612,3.27112 1.047102,0.43019 2.094444,0.45992 2.094444,0.45992 0.163537,0.0299 6.51274,0.003 8.213969,-0.005 0.072,-5.3e-4 0.111622,-0.0729 0.111622,-0.0729 0.005,-0.008 0.0094,-0.016 0.01138,-0.0233 v -0.0656 c -0.0141,-0.0439 -0.05168,-0.0749 -0.05168,-0.0749 l 0.0011,-5.3e-4 C 30.705391,140.72197 21.38367,135.74079 21.38367,135.74079 Z m 13.865304,9.26971 -10.94972,0.38396 c 1.18745,2.11679 3.187258,3.7619 5.270479,3.25665 1.437632,-0.35941 4.694505,-2.63112 5.769673,-3.39876 l -0.0036,-0.003 c 0.0836,-0.0751 0.05374,-0.13539 0.05374,-0.13539 -0.0275,-0.0983 -0.140559,-0.0982 -0.140559,-0.0982 z m 7.252269,0.008 -0.0011,0.004 c 0,0 -0.09613,0.0122 -0.122992,0.0842 0,0 -0.02336,0.0984 0.04134,0.14727 l -0.0011,0.001 c 1.04833,0.75176 4.22628,2.97355 5.75727,3.40496 0,0 0.231934,0.0789 0.620636,0.093 h 0.233576 c 1.02575,-0.036 2.812672,-0.56293 4.436423,-3.35277 z"
       style="fill:#cf0a2c;fill-opacity:1;stroke:none;stroke-width:0.61020029" />
  </g>
  <g
     id="g8533"
     transform="matrix(0.79294131,0,0,0.78975185,195.92662,-626.75687)">
    <path
       id="path6175"
       d="m 362.85596,864.70201 -2.2025,6.24038 h -0.18353 c -0.36709,-1.40714 -1.04007,-3.54845 -2.14132,-6.11803 l -11.80779,-29.67244 h -11.56308 v 47.29237 h 7.64754 v -29.183 c 0,-1.83541 0,-3.91554 -0.0612,-6.48511 -0.0612,-1.28478 -0.18354,-2.26367 -0.24472,-2.99783 h 0.18354 c 0.36708,1.8354 0.79534,3.18137 1.10124,4.03789 l 14.19383,34.50568 h 5.38387 l 14.07146,-34.81158 c 0.30591,-0.79534 0.61181,-2.38603 0.91771,-3.73199 h 0.18354 c -0.18354,3.48727 -0.30591,6.60747 -0.36708,8.50406 v 29.97833 h 8.13698 v -47.23118 h -11.13482 z m 30.95722,-16.33514 h 7.95344 v 33.89387 h -7.95344 z m 4.0379,-14.31619 c -1.34597,0 -2.44721,0.48944 -3.36492,1.34597 -0.9177,0.85652 -1.40715,1.95777 -1.40715,3.30373 0,1.28479 0.48945,2.38604 1.40715,3.24256 0.91771,0.85652 2.01895,1.28478 3.36492,1.28478 1.34596,0 2.50839,-0.48944 3.36491,-1.28478 0.91771,-0.85652 1.40715,-1.95777 1.40715,-3.24256 0,-1.28478 -0.48944,-2.38603 -1.40715,-3.30373 -0.79534,-0.85653 -1.95776,-1.34597 -3.36491,-1.34597 m 32.11965,14.01028 c -1.46833,-0.3059 -2.99783,-0.48943 -4.46616,-0.48943 -3.60964,0 -6.91337,0.79534 -9.66649,2.38603 -2.75311,1.59068 -4.9556,3.79318 -6.36275,6.54629 -1.46832,2.81429 -2.20248,6.05685 -2.20248,9.78884 0,3.24256 0.73416,6.11803 2.1413,8.74878 1.40715,2.56958 3.36492,4.64971 5.99567,6.05685 2.50839,1.40715 5.44505,2.14131 8.74878,2.14131 3.79318,0 7.03574,-0.79534 9.60531,-2.26367 l 0.0612,-0.0612 v -7.34163 l -0.3059,0.24472 c -1.16243,0.85652 -2.5084,1.59068 -3.85436,2.01895 -1.40715,0.48944 -2.69193,0.73416 -3.79318,0.73416 -3.18138,0 -5.68976,-0.9177 -7.46399,-2.93666 -1.83542,-1.95776 -2.75312,-4.6497 -2.75312,-8.01461 0,-3.48728 0.9177,-6.24039 2.8143,-8.25934 1.89658,-2.01895 4.40498,-3.05901 7.46399,-3.05901 2.56957,0 5.20033,0.85652 7.58636,2.56957 l 0.3059,0.24472 v -7.7699 l -0.0612,-0.0612 c -1.04007,-0.42826 -2.20249,-0.9177 -3.79318,-1.22361 m 26.24634,-0.24472 c -1.95777,0 -3.79318,0.61181 -5.38386,1.89659 -1.34597,1.10125 -2.26367,2.69194 -3.05902,4.58853 h -0.0612 v -5.93449 h -7.95344 v 33.89387 h 7.95344 v -17.31401 c 0,-2.93666 0.6118,-5.38387 1.95777,-7.1581 1.34597,-1.83541 3.05902,-2.75311 5.13914,-2.75311 0.73417,0 1.46833,0.18354 2.38604,0.3059 0.85652,0.24472 1.46832,0.48944 1.89659,0.79535 l 0.3059,0.24472 v -7.95344 l -0.18354,-0.0612 c -0.55063,-0.36708 -1.65187,-0.55063 -2.99784,-0.55063 m 21.65783,-0.18353 c -5.56741,0 -10.03357,1.65186 -13.15377,4.89441 -3.18137,3.24257 -4.71088,7.70873 -4.71088,13.33731 0,5.26151 1.59069,9.54412 4.6497,12.66432 3.05902,3.05901 7.21927,4.6497 12.4196,4.6497 5.44505,0 9.78885,-1.65187 12.90904,-4.9556 3.18138,-3.30374 4.71088,-7.70872 4.71088,-13.15376 0,-5.38387 -1.46832,-9.66649 -4.46616,-12.78668 -2.87547,-3.1202 -7.09691,-4.6497 -12.35841,-4.6497 m 6.36274,26.06279 c -1.46832,1.8966 -3.79318,2.8143 -6.66864,2.8143 -2.87548,0 -5.20033,-0.9177 -6.8522,-2.93665 -1.65187,-1.89659 -2.44721,-4.64971 -2.44721,-8.13698 0,-3.60964 0.85652,-6.36275 2.44721,-8.32052 1.65187,-1.95777 3.91554,-2.93666 6.79102,-2.93666 2.81429,0 5.01678,0.91771 6.60746,2.8143 1.59069,1.89659 2.44721,4.6497 2.44721,8.25934 -0.12235,3.67081 -0.79534,6.54629 -2.32485,8.44287 m 28.20412,-11.25717 c -2.50839,-1.04006 -4.09908,-1.8354 -4.83324,-2.50839 -0.61181,-0.6118 -0.91771,-1.46832 -0.91771,-2.56957 0,-0.9177 0.36708,-1.83541 1.28479,-2.44721 0.9177,-0.6118 1.95777,-0.91771 3.48727,-0.91771 1.34597,0 2.75311,0.24472 4.09908,0.61181 1.34597,0.36708 2.56958,0.9177 3.54846,1.65186 l 0.3059,0.24473 v -7.464 l -0.18354,-0.0612 c -0.91771,-0.36708 -2.14131,-0.73416 -3.60964,-1.04006 -1.46833,-0.24473 -2.81429,-0.36708 -3.91553,-0.36708 -3.79318,0 -6.91338,0.9177 -9.36059,2.93665 -2.44721,1.89659 -3.60963,4.46616 -3.60963,7.46399 0,1.59069 0.24472,2.99784 0.79533,4.16026 0.55063,1.16243 1.34597,2.26367 2.44722,3.18138 1.10124,0.85652 2.69193,1.8354 4.89442,2.75311 1.83541,0.79534 3.24255,1.40715 4.09908,1.89659 0.85652,0.48944 1.40715,1.04006 1.83541,1.46833 0.3059,0.48944 0.48944,1.10124 0.48944,1.89658 0,2.26368 -1.71305,3.36492 -5.20032,3.36492 -1.34597,0 -2.75312,-0.24472 -4.40498,-0.79534 -1.65187,-0.55063 -3.18138,-1.34597 -4.46617,-2.26368 l -0.3059,-0.24472 v 7.7699 l 0.18355,0.0612 c 1.16242,0.55063 2.56957,0.91771 4.28261,1.34596 1.71305,0.30591 3.24256,0.55063 4.58853,0.55063 4.09908,0 7.46399,-0.91771 9.85003,-2.93665 2.4472,-1.95777 3.73199,-4.46617 3.73199,-7.70872 0,-2.26367 -0.6118,-4.28262 -1.95777,-5.81212 -1.77422,-1.46833 -3.97672,-2.99784 -7.15809,-4.22145 m 30.1007,-14.80562 c -5.56741,0 -10.03357,1.65186 -13.15376,4.89441 -3.1202,3.24257 -4.71088,7.70873 -4.71088,13.33731 0,5.26151 1.59068,9.54412 4.6497,12.66432 3.05901,3.05901 7.21927,4.6497 12.4196,4.6497 5.44504,0 9.78884,-1.65187 12.90904,-4.9556 3.18137,-3.30374 4.71088,-7.70872 4.71088,-13.15376 0,-5.38387 -1.46833,-9.66649 -4.46616,-12.78668 -2.87548,-3.1202 -7.09692,-4.6497 -12.35842,-4.6497 m 6.30157,26.06279 c -1.46833,1.8966 -3.79318,2.8143 -6.66865,2.8143 -2.93666,0 -5.20033,-0.9177 -6.8522,-2.93665 -1.65187,-1.89659 -2.4472,-4.64971 -2.4472,-8.13698 0,-3.60964 0.85652,-6.36275 2.4472,-8.32052 1.65187,-1.95777 3.91554,-2.93666 6.79102,-2.93666 2.75311,0 5.01678,0.91771 6.60747,2.8143 1.59069,1.89659 2.44721,4.6497 2.44721,8.25934 0,3.67081 -0.79535,6.54629 -2.32485,8.44287 m 53.04331,-18.78234 v -6.54629 H 593.8727 V 838.3333 l -0.24472,0.0612 -7.58636,2.26367 -0.18354,0.0612 v 7.64754 h -11.99133 v -4.28262 c 0,-1.95777 0.48944,-3.48728 1.34596,-4.46616 0.85653,-0.97889 2.14131,-1.46833 3.732,-1.46833 1.10124,0 2.26367,0.24472 3.54845,0.79534 l 0.30591,0.18354 v -6.91337 l -0.18354,-0.0612 c -1.10125,-0.36708 -2.56958,-0.6118 -4.46616,-0.6118 -2.38603,0 -4.46617,0.55062 -6.36275,1.46832 -1.89659,1.04007 -3.30374,2.44721 -4.34381,4.34381 -1.04006,1.8354 -1.59068,3.91553 -1.59068,6.30156 v 4.71089 h -5.56741 v 6.48511 h 5.56741 v 27.40876 h 8.01462 v -27.34758 h 11.99133 v 17.43638 c 0,7.15809 3.36492,10.76773 10.09475,10.76773 1.10125,0 2.26367,-0.18354 3.36492,-0.36708 1.16242,-0.24472 2.01894,-0.55063 2.50839,-0.79535 l 0.0612,-0.0612 v -6.54629 l -0.30591,0.24473 c -0.48943,0.3059 -0.9177,0.55062 -1.65186,0.73416 -0.6118,0.18354 -1.16243,0.24472 -1.59069,0.24472 -1.59069,0 -2.69193,-0.36708 -3.48728,-1.28478 -0.73416,-0.85653 -1.10124,-2.26368 -1.10124,-4.34381 v -16.02923 z"
       style="fill:#737373;stroke-width:0.61180282"
       inkscape:connector-curvature="0" />
    <path
       id="path6177"
       d="m 232.41958,819.24505 h 37.50352 v 37.50352 h -37.50352 z"
       style="fill:#f25022;stroke-width:0.61180282"
       inkscape:connector-curvature="0" />
    <path
       id="path6179"
       d="m 273.83864,819.24505 h 37.50352 v 37.50352 h -37.50352 z"
       style="fill:#7fba00;stroke-width:0.61180282"
       inkscape:connector-curvature="0" />
    <path
       id="path6181"
       d="m 232.41958,860.6641 h 37.50352 v 37.50352 h -37.50352 z"
       style="fill:#00a4ef;stroke-width:0.61180282"
       inkscape:connector-curvature="0" />
    <path
       id="path6183"
       d="m 273.83864,860.6641 h 37.50352 v 37.50352 h -37.50352 z"
       style="fill:#ffb900;stroke-width:0.61180282"
       inkscape:connector-curvature="0" />
  </g>
  <g
     transform="matrix(0.96944991,0,0,0.96944991,-25.677761,-19.929041)"
     id="Layer_1">
    <g
       id="g6197">
      <path
         style="fill:#0c322c"
         inkscape:connector-curvature="0"
         d="m 148.462,130.726 h -13.556 c -1.044,0 -1.896,-0.849 -1.896,-1.895 v -6.849 h 13.083 c 1.124,0 2.037,-0.911 2.037,-2.036 0,-1.125 -0.913,-2.036 -2.037,-2.036 H 133.01 v -6.739 c 0,-1.046 0.852,-1.898 1.896,-1.898 h 13.556 c 1.18,0 2.138,-0.955 2.138,-2.135 0,-1.18 -0.958,-2.138 -2.138,-2.138 h -13.556 c -3.399,0 -6.168,2.768 -6.168,6.171 v 17.66 c 0,3.401 2.769,6.169 6.168,6.169 h 13.556 c 1.18,0 2.138,-0.956 2.138,-2.136 0,-1.181 -0.958,-2.138 -2.138,-2.138 m -39.861,-12.761 c -2.865,-0.514 -4.858,-1.123 -5.974,-1.832 -1.116,-0.709 -1.675,-1.667 -1.675,-2.874 0,-1.296 0.573,-2.36 1.72,-3.19 1.147,-0.829 2.76,-1.244 4.844,-1.244 2.111,0 3.801,0.406 5.069,1.222 0.681,0.438 1.303,1.022 1.863,1.75 0.826,1.071 2.384,1.212 3.389,0.308 0.946,-0.854 1.029,-2.319 0.177,-3.268 -1.027,-1.149 -2.197,-2.059 -3.507,-2.728 -1.946,-0.995 -4.292,-1.493 -7.036,-1.493 -2.355,0 -4.414,0.408 -6.177,1.222 -1.765,0.813 -3.118,1.916 -4.051,3.303 -0.937,1.387 -1.404,2.927 -1.404,4.616 0,1.6 0.368,2.958 1.11,4.073 0.737,1.117 1.923,2.052 3.552,2.806 1.628,0.755 3.815,1.388 6.562,1.901 2.746,0.513 4.668,1.101 5.769,1.764 1.102,0.665 1.653,1.539 1.653,2.624 0,1.359 -0.611,2.408 -1.835,3.146 -1.219,0.74 -2.902,1.109 -5.044,1.109 -2.263,0 -4.156,-0.422 -5.68,-1.267 -0.87,-0.483 -1.649,-1.123 -2.34,-1.92 -0.868,-1.008 -2.424,-1.031 -3.364,-0.091 l -0.009,0.009 c -0.86,0.859 -0.926,2.251 -0.114,3.155 2.582,2.883 6.434,4.322 11.551,4.322 2.354,0 4.428,-0.354 6.224,-1.063 1.795,-0.708 3.189,-1.726 4.185,-3.054 0.997,-1.328 1.494,-2.867 1.494,-4.617 0,-1.629 -0.362,-2.993 -1.086,-4.095 -0.725,-1.1 -1.877,-2.021 -3.462,-2.76 -1.583,-0.74 -3.719,-1.35 -6.404,-1.834 m -66.83,0.01 c -2.866,-0.516 -4.858,-1.123 -5.975,-1.832 -1.116,-0.711 -1.674,-1.668 -1.674,-2.876 0,-1.296 0.574,-2.36 1.72,-3.19 1.147,-0.828 2.76,-1.244 4.843,-1.244 2.11,0 3.8,0.407 5.068,1.222 0.683,0.438 1.304,1.022 1.864,1.752 0.825,1.07 2.384,1.21 3.39,0.307 0.946,-0.856 1.028,-2.319 0.176,-3.269 -1.027,-1.148 -2.198,-2.057 -3.507,-2.728 -1.946,-0.995 -4.293,-1.492 -7.037,-1.492 -2.354,0 -4.412,0.407 -6.177,1.221 -1.765,0.815 -3.116,1.917 -4.051,3.303 -0.935,1.389 -1.402,2.927 -1.402,4.617 0,1.599 0.368,2.958 1.108,4.072 0.739,1.118 1.924,2.053 3.553,2.807 1.629,0.754 3.816,1.387 6.561,1.901 2.746,0.513 4.669,1.101 5.771,1.765 1.1,0.662 1.652,1.538 1.652,2.623 0,1.358 -0.612,2.407 -1.833,3.146 -1.222,0.74 -2.904,1.109 -5.045,1.109 -2.264,0 -4.157,-0.422 -5.68,-1.268 -0.871,-0.483 -1.65,-1.123 -2.339,-1.92 -0.868,-1.007 -2.427,-1.031 -3.367,-0.09 l -0.008,0.009 c -0.86,0.858 -0.925,2.251 -0.115,3.155 2.583,2.882 6.434,4.322 11.553,4.322 2.353,0 4.427,-0.355 6.222,-1.064 1.796,-0.708 3.19,-1.727 4.186,-3.054 0.997,-1.326 1.494,-2.867 1.494,-4.617 0,-1.628 -0.362,-2.993 -1.087,-4.094 -0.724,-1.101 -1.876,-2.021 -3.462,-2.76 -1.583,-0.741 -3.717,-1.351 -6.402,-1.833 M 86.342,107.06 v 16.427 c 0,3.922 -1.04,6.886 -3.121,8.893 -2.083,2.006 -5.114,3.008 -9.096,3.008 -3.983,0 -7.016,-1.002 -9.097,-3.008 -2.081,-2.007 -3.122,-4.971 -3.122,-8.893 V 107.06 c 0,-1.35 1.094,-2.444 2.443,-2.444 1.348,0 2.445,1.094 2.445,2.444 v 15.839 c 0,2.836 0.595,4.925 1.787,6.267 1.192,1.342 3.038,2.014 5.544,2.014 2.504,0 4.351,-0.672 5.543,-2.014 1.192,-1.342 1.787,-3.431 1.787,-6.267 V 107.06 c 0,-1.35 1.095,-2.444 2.445,-2.444 1.348,0 2.442,1.094 2.442,2.444"
         id="path6193" />
      <path
         style="fill:#30ba78"
         inkscape:connector-curvature="0"
         d="m 144.609,50.569 c -0.657,0.436 -1.538,0.437 -2.195,0 -1.079,-0.716 -1.182,-2.211 -0.312,-3.079 0.772,-0.8 2.046,-0.8 2.819,-0.001 0.868,0.868 0.763,2.364 -0.312,3.08 m 3.14,-4.361 c 1.252,5.329 -3.537,10.121 -8.866,8.869 -2.712,-0.637 -4.868,-2.79 -5.502,-5.503 -1.251,-5.326 3.536,-10.114 8.864,-8.865 2.711,0.633 4.865,2.786 5.504,5.499 m -35.882,28.659 c 0.612,0.876 1.116,1.721 1.402,2.566 0.2,0.602 0.456,1.393 1.05,1.711 0.034,0.018 0.062,0.033 0.097,0.044 1.087,0.396 3.884,0.329 3.884,0.329 h 5.142 c 0.439,0.007 4.301,-0.004 4.205,-0.437 -0.463,-2.066 -2.855,-2.434 -4.671,-3.515 -1.679,-1 -3.266,-2.133 -3.99,-4.082 -0.374,-1.006 -0.152,-3.327 0.496,-4.173 0.473,-0.61 1.165,-1.016 1.916,-1.18 0.827,-0.177 1.687,-0.024 2.518,0.06 1.021,0.104 2.032,0.289 3.049,0.416 1.969,0.256 3.953,0.359 5.936,0.305 3.274,-0.091 6.555,-0.613 9.658,-1.67 2.165,-0.728 4.299,-1.711 6.141,-3.078 2.094,-1.557 1.546,-1.41 -0.577,-1.193 -2.542,0.261 -5.108,0.297 -7.656,0.147 -2.379,-0.138 -4.724,-0.418 -6.877,-1.524 -1.696,-0.874 -3.151,-1.75 -4.492,-3.105 -0.201,-0.204 -0.327,-0.802 0.041,-1.183 0.356,-0.371 1.113,-0.155 1.346,0.041 2.344,1.96 5.837,3.572 9.457,3.748 1.955,0.097 3.861,0.135 5.819,0.047 0.977,-0.044 2.457,-0.037 3.435,-0.047 0.508,-0.006 1.889,0.139 2.147,-0.397 0.077,-0.157 0.071,-0.338 0.065,-0.513 -0.288,-7.829 -0.867,-16.663 -9.061,-20.406 -6.114,-2.796 -15.281,-7.127 -19.152,-8.924 -0.9,-0.425 -1.95,0.249 -1.95,1.248 0,2.616 0.135,6.374 0.135,9.794 -1.854,-1.89 -4.978,-3.081 -7.359,-4.174 -2.702,-1.241 -5.495,-2.29 -8.332,-3.175 -5.72,-1.771 -11.636,-2.861 -17.586,-3.454 -6.746,-0.672 -13.608,-0.35 -20.257,1.022 -10.942,2.27 -21.698,7.534 -29.864,15.229 -5.013,4.724 -8.946,11.436 -9.213,18.25 -0.379,9.643 2.322,14.823 7.289,20.16 7.919,8.506 24.962,9.696 31.864,-0.39 3.103,-4.542 3.78,-10.701 1.525,-15.718 -2.252,-5.017 -7.433,-8.643 -12.927,-8.827 -4.264,-0.14 -8.805,2.027 -10.438,5.969 -1.247,3.009 -0.537,6.728 1.732,9.066 0.884,0.913 2.081,1.657 3.391,1.365 0.769,-0.17 1.414,-0.75 1.531,-1.532 0.172,-1.154 -0.839,-1.902 -1.459,-2.788 -1.121,-1.599 -0.894,-3.997 0.51,-5.356 1.184,-1.147 2.938,-1.486 4.587,-1.483 1.534,0.003 3.104,0.279 4.429,1.053 1.861,1.094 3.099,3.099 3.524,5.22 1.279,6.333 -3.869,11.479 -10.851,11.884 -3.571,0.212 -7.207,-0.728 -9.995,-2.972 -7.06,-5.679 -8.79,-17.288 -0.718,-23.486 7.659,-5.882 17.331,-4.366 23.03,-1.309 4.565,2.445 7.966,6.447 10.543,10.871 1.292,2.224 2.394,4.548 3.417,6.911 0.984,2.27 1.902,4.558 3.871,6.222 1.304,1.103 2.911,1.063 4.619,1.063 h 9.746 c 1.322,0 1.002,-0.882 0.428,-1.467 -1.292,-1.32 -3.148,-1.619 -4.868,-2.092 -3.926,-1.08 -3.526,-6.279 -2.44,-6.279 3.513,0 3.624,0.104 6.7,0.063 4.442,-0.06 5.783,-0.318 9.254,0.967 1.858,0.687 3.642,2.502 4.804,4.158"
         id="path6195" />
    </g>
  </g>
  <g
     transform="matrix(1.286299,0,0,1.286299,180.52767,137.96166)"
     id="g6">
    <path
       style="fill:#f7931a"
       inkscape:connector-curvature="0"
       d="M 63.033,39.744 C 58.759,56.887 41.396,67.32 24.251,63.045 7.113,58.771 -3.32,41.407 0.956,24.265 5.228,7.12 22.591,-3.314 39.731,0.96 56.875,5.234 67.307,22.6 63.033,39.744 Z"
       id="path2-3" />
    <path
       style="fill:#ffffff"
       inkscape:connector-curvature="0"
       d="M 46.103,27.444 C 46.74,23.186 43.498,20.897 39.065,19.37 l 1.438,-5.768 -3.511,-0.875 -1.4,5.616 c -0.923,-0.23 -1.871,-0.447 -2.813,-0.662 l 1.41,-5.653 -3.509,-0.875 -1.439,5.766 c -0.764,-0.174 -1.514,-0.346 -2.242,-0.527 l 0.004,-0.018 -4.842,-1.209 -0.934,3.75 c 0,0 2.605,0.597 2.55,0.634 1.422,0.355 1.679,1.296 1.636,2.042 l -1.638,6.571 c 0.098,0.025 0.225,0.061 0.365,0.117 -0.117,-0.029 -0.242,-0.061 -0.371,-0.092 l -2.296,9.205 c -0.174,0.432 -0.615,1.08 -1.609,0.834 0.035,0.051 -2.552,-0.637 -2.552,-0.637 l -1.743,4.019 4.569,1.139 c 0.85,0.213 1.683,0.436 2.503,0.646 l -1.453,5.834 3.507,0.875 1.439,-5.772 c 0.958,0.26 1.888,0.5 2.798,0.726 l -1.434,5.745 3.511,0.875 1.453,-5.823 c 5.987,1.133 10.489,0.676 12.384,-4.739 1.527,-4.36 -0.076,-6.875 -3.226,-8.515 2.294,-0.529 4.022,-2.038 4.483,-5.155 z m -8.022,11.249 c -1.085,4.36 -8.426,2.003 -10.806,1.412 l 1.928,-7.729 c 2.38,0.594 10.012,1.77 8.878,6.317 z m 1.086,-11.312 c -0.99,3.966 -7.1,1.951 -9.082,1.457 l 1.748,-7.01 c 1.982,0.494 8.365,1.416 7.334,5.553 z"
       id="path4-6" />
  </g>
  <g
     transform="matrix(0.43153729,0,0,0.43153729,433.59538,140.39843)"
     id="g844">
    <g
       style="display:inline"
       id="layer3"
       transform="translate(-92,-63.999774)">
      <g
         id="layer5">
        <path
           inkscape:connector-curvature="0"
           style="fill:#abcd03"
           id="path2554"
           d="m 264.513,77.977773 -4.917,19.529001 c 6.965,-13.793001 18.027,-24.172001 30.729,-33.323001 -9.287,10.789 -17.754,21.579001 -22.944,32.368001 8.741,-12.292001 20.486,-19.120001 33.733,-23.627001 -17.618,15.706001 -31.60228,32.559277 -42.25528,49.494277 l -8.467,-3.687 c 1.501,-13.521 6.60928,-27.369276 14.12128,-40.754277 z" />
        <path
           inkscape:connector-curvature="0"
           style="fill:#fffcdb"
           id="path2534"
           d="m 241.90113,115.14152 16.116,6.68594 c 0,4.098 -0.33313,16.59703 2.22938,20.28403 26.80289,34.5191 22.29349,103.71329 -5.42951,105.48829 -42.21656,0 -58.317,-28.679 -58.317,-55.03801 0,-24.037 28.816,-40.016 46.025,-54.219 4.37,-3.824 3.61113,-12.27525 -0.62387,-23.20125 z" />
        <path
           inkscape:connector-curvature="0"
           style="fill:#7d4698"
           id="path2536"
           d="m 258.02197,121.58695 5.80803,2.96282 c -0.546,3.823 0.273,12.292 4.096,14.476 16.936,10.516 32.914,21.988 39.197,33.46 22.398,40.42601 -15.706,77.84601 -48.62,74.29501 17.891,-13.248 23.081,-40.42501 16.389,-70.06201 -2.731,-11.609 -6.966,-22.125 -14.478,-34.007 -3.25421,-5.83246 -2.11803,-13.06582 -2.39203,-21.12482 z" />
      </g>
      <g
         style="display:inline"
         id="layer4">
        <path
           inkscape:connector-curvature="0"
           id="path2538"
           d="m 255.226,120.58877 12.018,1.639 c -3.551,11.745 6.966,19.939 10.38,21.852 7.64801,4.234 15.02301,8.604 20.89601,13.93 11.063,10.106 17.345,24.31 17.345,39.333 0,14.886 -6.829,29.226 -18.301,38.786 -10.789,9.014 -25.67501,12.838 -40.15201,12.838 -9.014,0 -17.072,-0.409 -25.812,-3.278 -19.939,-6.692 -34.826,-23.763 -36.055,-44.25 -1.093,-15.979 2.458,-28.134 14.887,-40.835 6.418,-6.692 19.393,-14.34 28.271,-20.486 4.371,-3.005 9.014,-11.473 0.136,-27.451 l 1.776,-1.366 13.15659,8.81203 -11.10759,-4.57803 c 0.956,1.366 3.551,7.512 4.098,9.287 1.229,5.053 0.683,9.971 -0.41,12.155 -5.599,10.107 -15.159,12.838 -22.124,18.574 -12.292,10.106 -25.676,18.164 -24.174,45.888 0.683,13.657 11.336,30.319 27.314,38.104 9.014,4.371 19.394,6.146 29.91,6.692 9.423,0.41 27.45101,-5.19 37.28401,-13.384 10.516,-8.74 16.389,-21.988 16.389,-35.508 0,-13.658 -5.463,-26.632 -15.706,-35.783 -5.873,-5.326 -15.56901,-11.745 -21.57801,-15.16 -6.009,-3.414 -13.521,-12.974 -11.063,-22.124 z" />
        <path
           inkscape:connector-curvature="0"
           id="path2540"
           d="m 251.539,140.80177 c -1.229,6.283 -2.595,17.618 -8.058,21.852 -2.322,1.638 -4.644,3.278 -7.102,4.916 -9.833,6.693 -19.667,12.974 -24.173,29.09 -0.956,3.415 -0.136,7.102 0.684,10.516 2.458,9.833 9.423,20.486 14.886,26.769 0,0.273 1.093,0.956 1.093,1.229 4.507,5.327 5.873,6.829 22.944,10.652 l -0.41,1.913 c -10.243,-2.731 -18.71,-5.189 -24.037,-11.336 0,-0.136 -0.956,-1.093 -0.956,-1.093 -5.736,-6.556 -12.702,-17.481 -15.296,-27.724 -0.956,-4.098 -1.775,-7.238 -0.683,-11.473 4.643,-16.661 14.75,-23.217 24.993,-30.182 2.322,-1.502 5.053,-2.869 7.238,-4.644 4.233,-3.14 6.554,-12.701 8.877,-20.485 z" />
        <path
           inkscape:connector-curvature="0"
           id="path2542"
           d="m 255.90625,166.74951 c 0.137,7.102 -0.55625,10.66475 1.21875,15.71875 1.092,3.004 4.782,7.1015 5.875,11.0625 1.502,5.327 3.138,11.19901 3,14.75001 0,4.09799 -0.25625,11.74249 -2.03125,19.93749 -1.35362,6.77108 -4.47323,12.58153 -9.71875,15.875 -5.37327,-1.10644 -11.68224,-2.99521 -15.40625,-6.1875 -7.238,-6.282 -13.64875,-16.7865 -14.46875,-25.9375 -0.682,-7.51099 6.27275,-18.5885 15.96875,-24.1875 8.194,-4.78 10.1,-10.22775 11.875,-18.96875 -2.458,7.648 -4.7665,14.05925 -12.6875,18.15625 -11.472,6.009 -17.3585,16.09626 -16.8125,25.65625 0.819,12.291 5.7415,20.6195 15.4375,27.3125 4.097,2.868 11.75125,5.89875 16.53125,6.71875 v -0.625 c 3.62493,-0.67888 8.31818,-6.63267 10.65625,-14.6875 2.049,-7.238 2.85675,-16.502 2.71875,-22.37499 -0.137,-3.414 -1.643,-10.80801 -4.375,-17.50001 -1.502,-3.687 -3.8095,-7.37375 -5.3125,-9.96875 -1.637,-2.597 -1.64875,-8.195 -2.46875,-14.75 z" />
        <path
           inkscape:connector-curvature="0"
           id="path2544"
           d="m 255.09375,193.53076 c 0.136,4.78 2.056,10.90451 2.875,17.18751 0.684,4.64399 0.387,9.30824 0.25,13.40624 -0.13495,4.74323 -1.7152,13.24218 -3.875,17.375 -2.03673,-0.93403 -2.83294,-1.99922 -4.15625,-3.71875 -1.638,-2.322 -2.75075,-4.644 -3.84375,-7.375 -0.819,-2.049 -1.7765,-4.394 -2.1875,-7.125 -0.546,-4.097 -0.393,-10.5065 4.25,-17.06249 3.551,-5.19001 4.36475,-5.58476 5.59375,-11.59376 -1.64,5.326 -2.8625,5.869 -6.6875,10.37501 -4.233,4.917 -4.9375,12.15924 -4.9375,18.03124 0,2.459 0.9805,5.18725 1.9375,7.78125 1.092,2.732 2.02925,5.452 3.53125,7.5 2.25796,3.32082 5.14798,5.20922 6.5625,5.5625 0.009,0.002 0.022,-0.002 0.0312,0 0.0303,0.007 0.0649,0.0255 0.0937,0.0312 v -0.15625 c 2.64982,-2.95437 4.24444,-5.88934 4.78125,-8.84375 0.683,-3.551 0.84,-7.10975 1.25,-11.34375 0.409,-3.551 0.11225,-8.334 -0.84375,-13.24999 -1.365,-6.146 -3.669,-12.41226 -4.625,-16.78126 z" />
        <path
           inkscape:connector-curvature="0"
           id="path2550"
           d="m 255.499,135.06577 c 0.137,7.101 0.683,20.35 2.595,25.539 0.546,1.775 5.599,9.56 9.149,18.983 2.459,6.556 3.005,12.565 3.415,14.34 1.639,7.785 -0.41,20.896 -3.142,33.324 -1.365,6.692 -6.009,15.023 -11.335,18.301 l -1.092,1.912 c 3.005,-0.137 10.379,-7.375 12.974,-16.389 4.371,-15.296 6.146,-22.398 4.098,-39.333 -0.273,-1.64 -0.956,-7.238 -3.551,-13.248 -3.824,-9.151 -9.287,-17.891 -9.969,-19.667 -1.23,-2.867 -2.869,-15.295 -3.142,-23.762 z" />
        <path
           inkscape:connector-curvature="0"
           id="path2552"
           d="m 258.06151,125.35303 c -0.40515,7.29812 -0.51351,9.98574 0.85149,15.31174 1.502,5.873 9.151,14.34 12.292,24.037 6.009,18.574 4.507,42.884 0.136,61.867 -1.638,6.691 -9.424,16.389 -17.208,19.529 l 5.736,1.366 c 3.141,-0.137 11.198,-7.648 14.34,-16.252 5.052,-13.521 6.009,-29.636 3.96,-46.571 -0.137,-1.639 -2.869,-16.252 -5.463,-22.398 -3.688,-9.15 -10.244,-17.345 -10.926,-19.119 -1.228,-3.005 -3.92651,-9.24362 -3.71849,-17.77074 z" />
        <rect
           id="rect2556"
           y="120.21686"
           x="253.71959"
           height="126.01891"
           width="0.550412" />
      </g>
    </g>
    <path
       inkscape:connector-curvature="0"
       style="fill:#7d4698"
       id="path2528"
       d="M 7.9430002,18.074997 H 117.611 c 4.096,0 7.647,3.414 7.647,7.648 v 32.367 c 0,4.234 -3.551,7.649 -7.647,7.649 H 95.077 c -5.054,0 -7.239,2.867 -7.239,6.145 V 177.86401 c 0,3.551 -2.868,6.282 -6.282,6.282 H 44.272 c -3.415,0 -6.146,-2.731 -6.146,-6.282 V 70.928997 c 0,-3.278 -3.005,-5.189 -5.326,-5.189 H 7.9430002 c -4.234,0 -7.64799997,-3.415 -7.64799997,-7.649 v -32.368 c -0.001,-4.234 3.41299997,-7.648 7.64799997,-7.648 z" />
    <path
       inkscape:connector-curvature="0"
       style="fill:#7d4698"
       id="path2532"
       d="m 289.30687,60.958997 h 9.696 c 3.551,0 6.419,2.868 6.419,6.282 V 101.931 c 0,4.507 0.273,6.282 -5.19,6.282 -10.789,0 -15.705,5.736 -15.705,12.018 v 58.58901 c 0,2.732 -2.595,5.053 -5.736,5.053 h -34.827 c -3.141,0 -5.736,-2.321 -5.736,-5.053 V 112.036 c -0.0378,-1.17441 -0.0148,-2.9081 0.137,-3.823 1.912,-24.720003 21.30753,-44.497863 45.888,-46.981003 0.82399,-0.0832 3.73943,-0.273 5.054,-0.273 z" />
  </g>
</svg>
